<?xml version="1.0" encoding="UTF-8"?>
<svg version="1.1" xmlns="http://www.w3.org/2000/svg" width="1254" height="1254">
<path d="M0 0 C413.82 0 827.64 0 1254 0 C1254 413.82 1254 827.64 1254 1254 C840.18 1254 426.36 1254 0 1254 C0 840.18 0 426.36 0 0 Z " fill="#000000" transform="translate(0,0)"/>
<path d="M0 0 C-1.69478321 4.77363936 -4.19301547 8.96499136 -6.75 13.3125 C-7.23388184 14.14152832 -7.71776367 14.97055664 -8.21630859 15.82470703 C-9.26422283 17.61947177 -10.31359299 19.41338705 -11.36425781 21.20654297 C-12.99454058 23.99067662 -14.61922363 26.77800069 -16.2421875 29.56640625 C-21.19531278 38.07350569 -26.1601385 46.57368312 -31.14453125 55.0625 C-39.9414593 70.04559956 -48.67565034 85.0620645 -57.34228516 100.12109375 C-63.19187696 110.27991356 -69.07394614 120.41969875 -74.98608398 130.54223633 C-86.68478281 150.57332327 -98.29469507 170.64653659 -109.59375 190.90625 C-112.90969811 196.84921637 -116.26577067 202.76892957 -119.625 208.6875 C-124.332399 216.99029724 -128.93411931 225.3451534 -133.4831543 233.7355957 C-137.06320437 240.32356852 -140.73094863 246.85748081 -144.4375 253.375 C-149.53694767 262.34491927 -154.48898742 271.38662368 -159.3840332 280.46948242 C-162.58426977 286.40240604 -165.81693757 292.31395904 -169.125 298.1875 C-169.47916992 298.81648193 -169.83333984 299.44546387 -170.19824219 300.09350586 C-171.12579558 301.73262262 -172.0625322 303.36653338 -173 305 C-173.41727859 305.87814865 -173.83455719 306.7562973 -174.26448059 307.66105652 C-176 310 -176 310 -178.52470398 310.60127258 C-179.53064102 310.59016953 -180.53657806 310.57906647 -181.57299805 310.56762695 C-182.71395432 310.5672493 -183.85491058 310.56687164 -185.03044128 310.56648254 C-186.26176285 310.54067612 -187.49308441 310.51486969 -188.76171875 310.48828125 C-190.02264847 310.48120651 -191.28357819 310.47413177 -192.5827179 310.46684265 C-195.93221392 310.44357389 -199.28000669 310.39867107 -202.62902832 310.34332275 C-206.04745775 310.29213652 -209.46606327 310.26933017 -212.88476562 310.24414062 C-219.59031519 310.18895124 -226.29505925 310.10523225 -233 310 C-233.30016525 309.42243454 -233.60033051 308.84486908 -233.90959167 308.24980164 C-241.88859479 292.91031232 -241.88859479 292.91031232 -250.3125 277.8125 C-255.00082585 269.60651591 -259.5442561 261.3344628 -264 253 C-268.93152443 243.77963046 -273.98846623 234.64424244 -279.16699219 225.56054688 C-283.69644015 217.59468044 -288.04817831 209.53937559 -292.37792969 201.46362305 C-295.87588469 194.97410929 -299.5131666 188.60174196 -303.46191406 182.375 C-305.15994364 179.65427517 -306 178.28144096 -306 175 C-306.66 175 -307.32 175 -308 175 C-308.27005859 175.70237793 -308.54011719 176.40475586 -308.81835938 177.12841797 C-310.05849577 180.14215439 -311.45012507 183.02985733 -312.90625 185.9453125 C-313.76669922 187.66923218 -313.76669922 187.66923218 -314.64453125 189.42797852 C-315.26280425 190.66042768 -315.88129889 191.89276569 -316.5 193.125 C-316.81501465 193.75381073 -317.1300293 194.38262146 -317.45458984 195.03048706 C-321.99301703 204.08678279 -326.6235693 213.088682 -331.375 222.03515625 C-334.6282442 228.16675909 -337.810301 234.33517865 -341 240.5 C-346.10633585 250.35976173 -351.23592754 260.20595713 -356.42675781 270.02148438 C-358.01112066 273.021054 -359.59179777 276.02254309 -361.17199707 279.02430725 C-362.75598152 282.03194653 -364.34222905 285.03838912 -365.92883301 288.04464722 C-366.7121048 289.52967825 -367.49460526 291.01511643 -368.27624512 292.50100708 C-370.47408025 296.67799881 -372.68895864 300.84507321 -374.9281311 305.00006104 C-375.64229544 306.33257948 -376.35014338 307.66850265 -377.05160522 309.00775146 C-384.13202058 322.51224979 -384.13202058 322.51224979 -391.0625 326 C-392.46934455 326.79582489 -393.87555631 327.59276907 -395.28125 328.390625 C-396.03664063 328.80376953 -396.79203125 329.21691406 -397.5703125 329.64257812 C-402.15241863 332.20251684 -406.59218143 335.00114951 -411.0625 337.75 C-413.04867354 338.95835645 -415.0356616 340.16537503 -417.0234375 341.37109375 C-421.81355764 344.27888157 -426.60073583 347.19145337 -431.38647461 350.10644531 C-440.91923193 355.91267805 -450.45832389 361.70844113 -460 367.5 C-467.83147294 372.25373246 -475.66278474 377.00772671 -483.48950195 381.76928711 C-485.42105943 382.94421793 -487.35316848 384.11824256 -489.28588867 385.29125977 C-493.29053264 387.72479307 -497.28584665 390.16823807 -501.2421875 392.6796875 C-501.85779541 393.06825928 -502.47340332 393.45683105 -503.10766602 393.85717773 C-504.66593513 394.84462451 -506.21806582 395.84174115 -507.76953125 396.83984375 C-508.50558594 397.22269531 -509.24164063 397.60554688 -510 398 C-510.66 397.67 -511.32 397.34 -512 397 C-511.45214844 395.96488281 -510.90429688 394.92976563 -510.33984375 393.86328125 C-506.01557857 385.6762669 -501.72263302 377.47457118 -497.48503113 369.24229431 C-491.638011 357.88394415 -485.729394 346.57493141 -479.55908203 335.38745117 C-475.06878703 327.20960802 -470.79908141 318.92266753 -466.53677368 310.62478638 C-462.36181685 302.5013034 -458.09984263 294.43532 -453.6875 286.4375 C-449.48349603 278.8131362 -445.49381706 271.11103685 -441.63623047 263.30615234 C-438.93664288 257.84999662 -436.16278914 252.44140279 -433.3125 247.0625 C-429.03240904 238.9844729 -424.81892111 230.87301141 -420.625 222.75 C-416.16576887 214.11448951 -411.69383452 205.48606012 -407.1875 196.875 C-402.14395926 187.2306226 -397.16110533 177.55555593 -392.1875 167.875 C-386.82060238 157.42912634 -381.45150803 146.98448595 -376.05654907 136.55307007 C-375.13519811 134.76973907 -374.21638822 132.98509597 -373.29760742 131.20043945 C-370.37580436 125.53578431 -367.41588327 119.89829209 -364.3671875 114.30078125 C-363.51423096 112.71861816 -363.51423096 112.71861816 -362.64404297 111.10449219 C-361.58126899 109.13802889 -360.50559954 107.17845655 -359.41455078 105.22753906 C-358.71434814 103.92574707 -358.71434814 103.92574707 -358 102.59765625 C-357.5875 101.85008057 -357.175 101.10250488 -356.75 100.33227539 C-355.46639941 96.34066198 -356.46427482 93.17560667 -358.1640625 89.44555664 C-358.88722656 88.19053345 -358.88722656 88.19053345 -359.625 86.91015625 C-360.16294189 85.96744873 -360.70088379 85.02474121 -361.25512695 84.0534668 C-362.11883911 82.57293823 -362.11883911 82.57293823 -363 81.0625 C-363.58289795 80.04647705 -364.1657959 79.0304541 -364.76635742 77.98364258 C-368.56882447 71.38040278 -372.43777042 64.81485965 -376.45898438 58.34204102 C-379 54.20927438 -379 54.20927438 -379 52 C-349.3 52 -319.6 52 -289 52 C-284.71 59.92 -280.42 67.84 -276 76 C-271.62359418 83.67215661 -271.62359418 83.67215661 -267.2265625 91.33203125 C-263.42706431 97.96983797 -259.74648415 104.67271747 -256.0625 111.375 C-250.18739553 122.06068353 -244.23823816 132.70124181 -238.22265625 143.30859375 C-229.43184626 158.81366576 -220.74033906 174.37743979 -212.12451172 189.98046875 C-211.29661802 191.46729825 -210.45812304 192.94823697 -209.61376953 194.42578125 C-209.15470215 195.23402344 -208.69563477 196.04226563 -208.22265625 196.875 C-207.79863525 197.61492187 -207.37461426 198.35484375 -206.93774414 199.1171875 C-206 201 -206 201 -206 203 C-203.35074467 200.61355787 -201.78132049 198.09118433 -200.06640625 194.9765625 C-199.50638916 193.96674316 -198.94637207 192.95692383 -198.36938477 191.91650391 C-197.77311279 190.83030762 -197.17684082 189.74411133 -196.5625 188.625 C-195.29247395 186.33288584 -194.02162854 184.04122551 -192.75 181.75 C-192.11578125 180.6053125 -191.4815625 179.460625 -190.828125 178.28125 C-188.27916308 173.70619015 -185.67466331 169.16416903 -183.0625 164.625 C-177.83173906 155.51335191 -172.72520098 146.3351653 -167.63476562 137.14453125 C-163.64736092 129.95013133 -159.62335732 122.77816233 -155.5625 115.625 C-151.01368202 107.60693518 -146.52958812 99.55478383 -142.08358765 91.47940063 C-141.06919967 89.63716729 -140.05392147 87.79542758 -139.03833008 85.95385742 C-138.70500168 85.34939285 -138.37167328 84.74492828 -138.02824402 84.12214661 C-137.35623455 82.9035392 -136.68420698 81.68494178 -136.01216125 80.46635437 C-134.3353791 77.42514056 -132.66062674 74.38283953 -130.98974609 71.33837891 C-129.08415054 67.86717516 -127.16740316 64.40219642 -125.25 60.9375 C-124.67773682 59.89094238 -124.10547363 58.84438477 -123.51586914 57.76611328 C-122.71137329 56.31760986 -122.71137329 56.31760986 -121.890625 54.83984375 C-121.42688477 53.99800537 -120.96314453 53.15616699 -120.48535156 52.28881836 C-117.51439182 47.71078621 -114.55880781 45.52501378 -109.48828125 43.58203125 C-108.3595459 43.14141357 -107.23081055 42.7007959 -106.06787109 42.24682617 C-105.45965515 42.014664 -104.85143921 41.78250183 -104.22479248 41.54330444 C-100.84777977 40.25274041 -97.48556138 38.92440803 -94.12109375 37.6015625 C-93.39480774 37.31699692 -92.66852173 37.03243134 -91.92022705 36.73924255 C-82.85499277 33.17725253 -73.86697402 29.42964604 -64.875 25.6875 C-63.13935092 24.96640396 -61.40367377 24.24537546 -59.66796875 23.52441406 C-51.82678914 20.26559926 -43.98963193 16.99720545 -36.15557861 13.72129822 C-33.63729139 12.66827771 -31.11871773 11.61594482 -28.60009766 10.5637207 C-25.48014689 9.26025939 -22.36149832 7.95375047 -19.24365234 6.64526367 C-17.83565082 6.05638499 -16.42761254 5.46759419 -15.01953125 4.87890625 C-13.19578979 4.11429077 -13.19578979 4.11429077 -11.33520508 3.33422852 C-3.00054895 0 -3.00054895 0 0 0 Z " fill="#F7F7F7" transform="translate(607,430)"/>
<path d="M0 0 C2.41025029 3.04173137 4.26390599 6.17568746 6.08203125 9.6015625 C6.67677246 10.71756836 7.27151367 11.83357422 7.88427734 12.98339844 C8.52703649 14.19725596 9.16977686 15.41112342 9.8125 16.625 C10.48610636 17.89115517 11.16010346 19.15710253 11.83447266 20.42285156 C12.87304462 22.37222806 13.91139994 24.32171573 14.94854736 26.27185059 C18.23214878 32.44487469 21.55210015 38.59805364 24.875 44.75 C30.56000848 55.28671484 36.17578826 65.8591189 41.78076172 76.4385376 C46.67172287 85.6664488 51.613702 94.8620647 56.69018555 103.98974609 C58.89152939 107.95118644 60.97285184 111.94570368 63 116 C63.96337094 117.73528973 64.92779753 119.47003027 65.90380859 121.19824219 C71.82894749 131.69020749 77.441493 142.34401419 83.06210327 153.00076294 C87.77272404 161.93028762 92.51184317 170.8397344 97.375 179.6875 C101.34475606 186.91090989 105.20611195 194.18269141 109 201.5 C113.35404129 209.89607119 117.81206523 218.22667422 122.359375 226.51953125 C126.27494579 233.66088316 130.1451835 240.82568493 134 248 C138.33016248 256.0549189 142.67826751 264.0993784 147.0625 272.125 C147.53848633 272.99737305 148.01447266 273.86974609 148.50488281 274.76855469 C150.59441528 278.59772482 152.68530281 282.42611506 154.78271484 286.25097656 C156.60884725 289.5819729 158.42973705 292.91579344 160.25 296.25 C160.82371338 297.2930127 161.39742676 298.33602539 161.98852539 299.41064453 C162.51309326 300.37341309 163.03766113 301.33618164 163.578125 302.328125 C164.28050293 303.61058105 164.28050293 303.61058105 164.99707031 304.91894531 C166 307 166 307 166 309 C140.92 309 115.84 309 90 309 C87.03 303.39 84.06 297.78 81 292 C79.02707306 288.55520693 77.05409357 285.11042886 75.0703125 281.671875 C72.76378494 277.62278459 70.59688241 273.50397706 68.4375 269.375 C64.22099874 261.31535947 59.97480232 253.27224283 55.6875 245.25 C55.36567749 244.64776611 55.04385498 244.04553223 54.71228027 243.42504883 C50.47823053 235.51240767 46.1450349 227.66440831 41.6875 219.875 C35.40454715 208.88770096 29.50375412 197.70965394 23.60693359 186.51245117 C17.90947916 175.69569503 12.10404523 164.94317016 6.21923828 154.22705078 C3.44936774 149.16762766 0.7266644 144.08279164 -2 139 C-7.42568313 146.4957442 -12.30209739 154.25747441 -17.0625 162.1875 C-17.81277092 163.43121897 -18.56342868 164.67470465 -19.31445312 165.91796875 C-20.82964465 168.42675639 -22.34335369 170.93642846 -23.85595703 173.44677734 C-26.88738282 178.47461909 -29.94369005 183.4872595 -33 188.5 C-34.12645878 190.35016502 -35.25275805 192.20042717 -36.37890625 194.05078125 C-38.30033922 197.2076897 -40.22193046 200.36450136 -42.14404297 203.52099609 C-44.03777995 206.63118121 -45.93024276 209.74213905 -47.82202148 212.85351562 C-48.55047355 214.05118074 -49.2792982 215.24861935 -50.00854492 216.44580078 C-51.03668522 218.13380667 -52.06327692 219.82275549 -53.08984375 221.51171875 C-53.67628662 222.47553467 -54.26272949 223.43935059 -54.86694336 224.43237305 C-57.95430222 229.5961106 -60.96855637 234.80323949 -64 240 C-36.28 240 -8.56 240 20 240 C17.33764876 242.66235124 15.55019793 243.937094 12.30078125 245.64453125 C11.35154785 246.14903809 10.40231445 246.65354492 9.42431641 247.17333984 C8.39741699 247.7142627 7.37051758 248.25518555 6.3125 248.8125 C-5.27119844 254.9991886 -16.61130128 261.53952753 -27.92724609 268.19970703 C-34.22372162 271.88874331 -40.55757818 275.51328498 -46.88427734 279.15014648 C-52.94901584 282.64322098 -58.99375251 286.166817 -65.01953125 289.7265625 C-66.02109505 290.31738869 -66.02109505 290.31738869 -67.04289246 290.92015076 C-70.30998468 292.84753175 -73.57448898 294.77904746 -76.8347168 296.71801758 C-78.01469781 297.41506828 -79.19478659 298.1119366 -80.375 298.80859375 C-81.41398438 299.42532959 -82.45296875 300.04206543 -83.5234375 300.67749023 C-86 302 -86 302 -88 302 C-88 302.66 -88 303.32 -88 304 C-119.02 304 -150.04 304 -182 304 C-180.44110384 299.32331151 -179.12681761 296.24140077 -176.61328125 292.16796875 C-175.93007813 291.05292969 -175.246875 289.93789063 -174.54296875 288.7890625 C-173.79948744 287.58853654 -173.05599764 286.38801584 -172.3125 285.1875 C-171.14889096 283.2931722 -169.9874679 281.39751455 -168.82601929 279.50186157 C-168.03574517 278.21249919 -167.24474489 276.92358163 -166.45303345 275.63510132 C-162.75643232 269.61724749 -159.12276205 263.56256143 -155.5 257.5 C-150.23776665 248.71119618 -144.94427849 239.94185216 -139.625 231.1875 C-139.27249176 230.60734131 -138.91998352 230.02718262 -138.55679321 229.42944336 C-136.40285908 225.8849839 -134.24803483 222.34106614 -132.09295654 218.79730225 C-128.78989939 213.36562056 -125.48802451 207.933221 -122.1875 202.5 C-121.82899963 201.90988129 -121.47049927 201.31976257 -121.10113525 200.71176147 C-116.24131645 192.71050447 -111.40643399 184.69482535 -106.60083008 176.66088867 C-102.59650188 169.97430699 -98.54835856 163.31467931 -94.49703979 156.65652466 C-94.12676666 156.04799652 -93.75649353 155.43946838 -93.375 154.8125 C-93.00722443 154.20808075 -92.63944885 153.6036615 -92.26052856 152.98092651 C-87.52972253 145.20295674 -82.84686893 137.40019036 -78.25561523 129.53881836 C-75.24417787 124.38926696 -72.13349559 119.30588444 -68.9921875 114.234375 C-65.65402899 108.81477648 -62.39474438 103.34804762 -59.12792969 97.88525391 C-57.31746661 94.85919419 -55.50236567 91.83592062 -53.6875 88.8125 C-51.24358253 84.74108174 -48.80134112 80.66867923 -46.36328125 76.59375 C-45.40900057 74.99991233 -44.45456832 73.40616541 -43.5 71.8125 C-43.00870605 70.99209229 -42.51741211 70.17168457 -42.01123047 69.32641602 C-38.95074606 64.22481142 -35.86883384 59.13669805 -32.76953125 54.05859375 C-31.28347003 51.62262991 -29.79775187 49.18645741 -28.3125 46.75 C-27.94317352 46.1441507 -27.57384705 45.53830139 -27.19332886 44.91409302 C-22.67340774 37.49194472 -18.24893447 30.0347349 -14.0559082 22.42260742 C-3.6603742 3.6603742 -3.6603742 3.6603742 0 0 Z " fill="#0077FB" transform="translate(660,439)"/>
<path d="M0 0 C1.15748473 -0.00597315 2.31496947 -0.01194629 3.5075295 -0.01810044 C5.41607185 -0.00499265 5.41607185 -0.00499265 7.36317062 0.00837994 C8.72780879 0.00707196 10.09244623 0.00444568 11.45707965 0.00061244 C15.21065782 -0.00610606 18.96397994 0.00591873 22.71752548 0.02094662 C26.76384607 0.03388314 30.81015183 0.02951922 34.85648727 0.0272398 C41.86824346 0.02566555 48.87991601 0.03509055 55.89165115 0.05195332 C66.02947162 0.07631827 76.16725157 0.08414602 86.30509815 0.08791729 C102.75243675 0.09448571 119.19973075 0.11445746 135.64704514 0.14282513 C151.62555849 0.17035559 167.60405973 0.19159413 183.58259201 0.20434856 C184.56724966 0.20513673 185.5519073 0.20592491 186.56640306 0.20673696 C191.50606396 0.21065203 196.44572495 0.21444316 201.38538599 0.21817267 C242.37498048 0.24928074 283.36452588 0.30212716 324.35407639 0.36914349 C318.87354574 5.87139151 318.87354574 5.87139151 316.19001389 8.16601849 C315.63144699 8.64474407 315.0728801 9.12346966 314.49738693 9.61670208 C313.91384445 10.11250774 313.33030197 10.60831341 312.72907639 11.11914349 C312.11008469 11.64717571 311.49109299 12.17520794 310.85334396 12.71924114 C306.41131541 16.49757096 301.92328226 20.21543118 297.39704514 23.89258099 C293.5358417 27.03507518 289.69517729 30.20213335 285.85407639 33.36914349 C280.3514616 37.90381111 274.84168789 42.42933748 269.31892014 46.93945599 C266.89048187 48.92955954 264.46675891 50.9250347 262.04548264 52.92383099 C260.90079514 53.86839153 260.90079514 53.86839153 259.73298264 54.83203411 C258.21802944 56.08257304 256.70368124 57.33384534 255.19001389 58.58594036 C254.14393967 59.44928997 254.14393967 59.44928997 253.07673264 60.33008099 C252.45548508 60.84361126 251.83423752 61.35714153 251.19416428 61.88623333 C250.58693527 62.37559368 249.97970627 62.86495403 249.35407639 63.36914349 C248.48230259 64.14610064 248.48230259 64.14610064 247.5929172 64.9387539 C244.76602379 66.74484876 243.03347979 66.74207776 239.6925354 66.73828697 C238.53156727 66.74426012 237.37059914 66.75023326 236.17445016 66.75638741 C234.26007138 66.74327963 234.26007138 66.74327963 232.30701828 66.72990704 C230.93825531 66.73121501 229.56949308 66.73384128 228.20073485 66.73767453 C224.4357554 66.74439313 220.67103122 66.73236811 216.9060843 66.71734035 C212.84749366 66.70440397 208.7889178 66.70876775 204.73031235 66.71104717 C197.69727534 66.71262143 190.66432173 66.70319634 183.63130569 66.68633366 C173.46271615 66.66196883 163.294167 66.65414097 153.12555143 66.65036968 C136.6282986 66.64380124 120.13109023 66.62382944 103.63386154 66.59546185 C87.60684558 66.56793143 71.57984168 66.54669287 55.55280685 66.53393841 C54.07133989 66.53275615 54.07133989 66.53275615 52.5599443 66.53155001 C47.60529933 66.52763494 42.65065427 66.52384381 37.69600916 66.5201143 C-3.41799936 66.48900618 -44.53195895 66.4361597 -85.64592361 66.36914349 C-82.89750977 63.60980797 -80.16954982 60.87185147 -77.22795486 58.31836224 C-76.6189534 57.78920208 -76.00995193 57.26004192 -75.38249588 56.71484661 C-74.74755203 56.16763958 -74.11260818 55.62043255 -73.45842361 55.05664349 C-72.79060867 54.47978802 -72.12279373 53.90293255 -71.43474197 53.30859661 C-67.14144841 49.61575281 -62.79255315 46.01233322 -58.34514236 42.50586224 C-54.87860815 39.76173168 -51.45005099 36.97228889 -48.02092361 34.18164349 C-47.33925125 33.62750774 -46.65757889 33.073372 -45.95524979 32.50244427 C-42.48508469 29.68108616 -39.01733625 26.85679928 -35.55217361 24.02929974 C-26.98975148 17.04818861 -18.3755299 10.14048674 -9.64592361 3.36914349 C-9.04275165 2.83551195 -8.43957968 2.30188042 -7.81812978 1.75207824 C-5.03994004 -0.01665587 -3.28110576 -0.00373419 0 0 Z " fill="#FCFBFB" transform="translate(844.645923614502,479.63085651397705)"/>
<path d="M0 0 C1.1243519 0.00170874 1.1243519 0.00170874 2.27141798 0.003452 C3.13579878 -0.00252114 4.00017958 -0.00849429 4.89075375 -0.01464844 C6.32361157 -0.00154065 6.32361157 -0.00154065 7.78541601 0.01183194 C9.30093543 0.00798703 9.30093543 0.00798703 10.84707141 0.00406444 C14.25444357 -0.00090236 17.66137891 0.0156673 21.06871068 0.03201932 C23.50247217 0.03286496 25.93623443 0.03239167 28.36999547 0.0306918 C33.62093541 0.03000723 38.87177538 0.03855171 44.12268484 0.05540532 C51.71466447 0.07975713 59.30658998 0.08759666 66.89860444 0.09136929 C79.21526552 0.09793979 91.53186709 0.11791715 103.84849584 0.14627713 C115.81496416 0.17380224 127.78141633 0.19504338 139.7479099 0.20780057 C140.48517236 0.20858874 141.22243483 0.20937691 141.98203857 0.21018896 C145.6805628 0.21410399 149.37908715 0.21789514 153.07761157 0.22162467 C183.77439425 0.25273921 214.47110477 0.30581381 245.16783178 0.37259549 C244.22542508 1.48657207 243.28092246 2.59877573 242.33555639 3.71024197 C241.80981527 4.3297926 241.28407415 4.94934323 240.74240148 5.58766812 C238.56299137 8.05824072 236.18398112 10.23899232 233.73033178 12.43509549 C232.67757332 13.38486853 231.6255243 14.33542836 230.57408178 15.28665799 C230.02236303 15.78455838 229.47064428 16.28245877 228.90220678 16.79544705 C225.81563957 19.60220721 222.77524996 22.45831927 219.73033178 25.31009549 C194.31890934 49.07100527 194.31890934 49.07100527 188.8749088 53.72360867 C187.03961942 55.40117615 187.03961942 55.40117615 185.39788854 57.80722684 C181.06957253 62.98070756 177.39096164 65.5053567 170.57786596 66.29370755 C163.4089468 66.75870833 156.24170537 66.65467523 149.06236303 66.56790799 C146.4099561 66.5716986 143.7578479 66.57940416 141.10549963 66.59229153 C134.86153032 66.61411318 128.61888017 66.58547676 122.37509352 66.53816849 C115.260016 66.48675579 108.1453295 66.49241704 101.03011513 66.50258917 C86.40898886 66.52222804 71.78863391 66.47111392 57.16783178 66.37259549 C56.7708962 67.13846478 56.37396062 67.90433408 55.9649967 68.69341153 C54.46722756 71.58311959 52.96932771 74.47275983 51.47134435 77.36235684 C50.82771837 78.60396862 50.18414185 79.84560603 49.54061925 81.08727139 C40.6195601 98.30008174 31.5718321 115.4178789 22.16783178 132.37259549 C21.17783178 132.37259549 20.18783178 132.37259549 19.16783178 132.37259549 C18.86715795 131.79106717 18.56648412 131.20953885 18.25669897 130.61038846 C12.22943467 118.96815572 6.12927333 107.37377347 -0.17762721 95.88040799 C-2.9590038 90.81037387 -5.72023521 85.73060957 -8.45326197 80.63431424 C-9.06766139 79.48874051 -9.6820608 78.34316678 -10.31507838 77.16287869 C-11.49489155 74.96052928 -12.67307506 72.75730568 -13.84925807 70.55301541 C-14.39662623 69.53183621 -14.94399439 68.51065701 -15.50794947 67.45853299 C-16.04371607 66.45789822 -16.57948267 65.45726346 -17.13148463 64.42630643 C-19.48083569 60.20786211 -22.0411071 56.12372221 -24.63368189 52.05081815 C-26.06191699 48.85918257 -25.93441452 47.64403113 -24.83216822 44.37259549 C-24.17009169 42.80378747 -23.4486606 41.25912328 -22.67982447 39.73978299 C-22.23759547 38.85975613 -21.79536646 37.97972928 -21.33973658 37.07303494 C-20.62442774 35.67444241 -20.62442774 35.67444241 -19.89466822 34.24759549 C-19.40683863 33.28361844 -18.91900904 32.31964139 -18.41639674 31.32645291 C-14.2888466 23.19848731 -10.08907373 15.10727169 -5.82826197 7.04837674 C-5.32057276 6.08798489 -5.32057276 6.08798489 -4.80262721 5.10819119 C-2.1961 0.4466058 -2.1961 0.4466058 0 0 Z " fill="#FBFAFA" transform="translate(812.8321682214737,583.6274045109749)"/>
<path d="M0 0 C1.39195915 4.17587745 -0.17676781 6.13474776 -2 10 C-1.41882542 9.83748025 -0.83765083 9.6749605 -0.2388649 9.50751591 C3.3166067 8.70154571 6.9048886 8.87034407 10.53222656 8.88647461 C11.39112488 8.88632858 12.25002319 8.88618256 13.13494873 8.8860321 C15.97019996 8.88672804 18.80538526 8.89450555 21.640625 8.90234375 C23.60788945 8.90420906 25.57515436 8.90563243 27.54241943 8.90663147 C32.71766444 8.91044773 37.89288133 8.92027044 43.06811523 8.93133545 C48.35009379 8.9415687 53.63207689 8.9461332 58.9140625 8.95117188 C69.27605401 8.96189349 79.63802467 8.97895925 90 9 C89.34 9.33 88.68 9.66 88 10 C88 10.66 88 11.32 88 12 C56.98 12 25.96 12 -6 12 C-4.35649921 7.06949764 -2.93391654 4.10748316 0 0 Z " fill="#014BC8" transform="translate(484,731)"/>
<path d="M0 0 C1.39195915 4.17587745 -0.17676781 6.13474776 -2 10 C-1.21616943 9.75769653 -1.21616943 9.75769653 -0.41650391 9.51049805 C4.48934259 8.47411443 9.58652587 8.81409336 14.58203125 8.81469727 C16.62520851 8.81249978 18.66785487 8.79428988 20.7109375 8.77539062 C22.63679688 8.77249023 22.63679688 8.77249023 24.6015625 8.76953125 C25.78057129 8.76542236 26.95958008 8.76131348 28.17431641 8.75708008 C31 9 31 9 33 11 C20.13 11 7.26 11 -6 11 C-1 1 -1 1 0 0 Z " fill="#0059F9" transform="translate(484,731)"/>
<path d="M0 0 C0.99 0.33 1.98 0.66 3 1 C3 1.99 3 2.98 3 4 C3.66 4.33 4.32 4.66 5 5 C6.0703125 6.77734375 6.0703125 6.77734375 7.125 8.9375 C7.47820313 9.64777344 7.83140625 10.35804688 8.1953125 11.08984375 C9 13 9 13 9 15 C10.35544922 15.07347656 10.35544922 15.07347656 11.73828125 15.1484375 C12.91777344 15.22320313 14.09726562 15.29796875 15.3125 15.375 C16.48425781 15.44460938 17.65601563 15.51421875 18.86328125 15.5859375 C22 16 22 16 25 18 C19.72 18 14.44 18 9 18 C7.49751459 15.1888021 5.9979069 12.37613594 4.5 9.5625 C4.07074219 8.76005859 3.64148438 7.95761719 3.19921875 7.13085938 C2.79316406 6.36708984 2.38710938 5.60332031 1.96875 4.81640625 C1.59169922 4.10943604 1.21464844 3.40246582 0.82617188 2.67407227 C0 1 0 1 0 0 Z " fill="#0151F3" transform="translate(741,730)"/>
<path d="M0 0 C2.50298434 2.93828597 3.46930939 5.17902761 4 9 C3.34 7.68 2.68 6.36 2 5 C-1.63559661 8.43361902 -4.36113346 11.7973607 -7 16 C-7.7109375 14.35546875 -7.7109375 14.35546875 -8 12 C-6.6015625 9.23828125 -6.6015625 9.23828125 -4.625 6.3125 C-3.97789062 5.33925781 -3.33078125 4.36601562 -2.6640625 3.36328125 C-1 1 -1 1 0 0 Z " fill="#047DED" transform="translate(660,439)"/>
<path d="M0 0 C1.33737163 4.01211489 0.24283259 5.23549696 -1.5625 9 C-2.11292969 10.14855469 -2.66335938 11.29710937 -3.23046875 12.48046875 C-5.69876472 17.38981681 -8.29666708 22.21644282 -11 27 C-12 24 -12 24 -11.01196289 21.45629883 C-10.5039917 20.46654053 -9.99602051 19.47678223 -9.47265625 18.45703125 C-8.92802734 17.38388672 -8.38339844 16.31074219 -7.82226562 15.20507812 C-7.24154297 14.08552734 -6.66082031 12.96597656 -6.0625 11.8125 C-5.1972168 10.11577148 -5.1972168 10.11577148 -4.31445312 8.38476562 C-2.88512449 5.58517152 -1.44668864 2.79065195 0 0 Z " fill="#E5E4E5" transform="translate(799,606)"/>
<path d="M0 0 C0.66 0.99 1.32 1.98 2 3 C0.88407791 5.00507927 -0.24298712 7.00396096 -1.375 9 C-2.31472656 10.670625 -2.31472656 10.670625 -3.2734375 12.375 C-3.84320313 13.24125 -4.41296875 14.1075 -5 15 C-5.66 15 -6.32 15 -7 15 C-5.63408831 11.45756548 -4.09068516 8.07372071 -2.375 4.6875 C-1.70597656 3.36298828 -1.70597656 3.36298828 -1.0234375 2.01171875 C-0.68570313 1.34785156 -0.34796875 0.68398438 0 0 Z " fill="#E8E8E8" transform="translate(164,696)"/>
<path d="M0 0 C1 3 1 3 -0.14453125 5.4453125 C-0.69496094 6.32960938 -1.24539063 7.21390625 -1.8125 8.125 C-2.35519531 9.01445313 -2.89789062 9.90390625 -3.45703125 10.8203125 C-5 13 -5 13 -7 14 C-6.44010697 10.00987629 -5.24330232 7.4744948 -2.9375 4.1875 C-2.38964844 3.39730469 -1.84179688 2.60710938 -1.27734375 1.79296875 C-0.64505859 0.90544922 -0.64505859 0.90544922 0 0 Z " fill="#0286F0" transform="translate(575,581)"/>
<path d="M0 0 C1.07851346 4.31405382 0.8992658 5.20146839 -1 9 C-1.66 9.66 -2.32 10.32 -3 11 C-3.99 10.67 -4.98 10.34 -6 10 C-4.02 6.7 -2.04 3.4 0 0 Z " fill="#0178DE" transform="translate(547,626)"/>
<path d="M0 0 C1 3 1 3 -0.1875 6.625 C-2 10 -2 10 -4.11328125 10.7109375 C-4.73589844 10.80632813 -5.35851562 10.90171875 -6 11 C-5.18993474 9.35296694 -4.3768779 7.70740494 -3.5625 6.0625 C-3.11003906 5.14597656 -2.65757812 4.22945312 -2.19140625 3.28515625 C-1 1 -1 1 0 0 Z " fill="#034FD7" transform="translate(484,731)"/>
<path d="M0 0 C3.49873271 1.39655297 4.70891831 2.71260484 6.25 6.125 C6.58515625 6.84945312 6.9203125 7.57390625 7.265625 8.3203125 C7.62914062 9.15175781 7.62914062 9.15175781 8 10 C7.34 10.66 6.68 11.32 6 12 C5.18432826 10.56429734 4.37257907 9.12636566 3.5625 7.6875 C3.11003906 6.88699219 2.65757812 6.08648438 2.19140625 5.26171875 C1 3 1 3 0 0 Z " fill="#004FDD" transform="translate(732,714)"/>
<path d="M0 0 C4.88764045 5.86516854 4.88764045 5.86516854 6 9 C5.71050922 10.34353414 5.38155437 11.67965718 5 13 C4.15615325 11.58957044 3.32530504 10.17135868 2.5 8.75 C2.0359375 7.96109375 1.571875 7.1721875 1.09375 6.359375 C0 4 0 4 0 0 Z " fill="#0176E1" transform="translate(675,606)"/>
<path d="M0 0 C0.33 0.99 0.66 1.98 1 3 C1.66 3 2.32 3 3 3 C3 3.66 3 4.32 3 5 C0.625 6.6875 0.625 6.6875 -2 8 C-2.66 7.67 -3.32 7.34 -4 7 C-2.68 4.69 -1.36 2.38 0 0 Z " fill="#CDCDCD" transform="translate(99,820)"/>
<path d="M0 0 C0.66 0.66 1.32 1.32 2 2 C0.68 4.31 -0.64 6.62 -2 9 C-3.125 7.25 -3.125 7.25 -4 5 C-3.07451225 2.30066074 -2.57626463 1.28813232 0 0 Z " fill="#00091C" transform="translate(510,684)"/>
<path d="M0 0 C0.66 0.33 1.32 0.66 2 1 C1.38080922 2.46080933 0.75443308 3.91857455 0.125 5.375 C-0.22304688 6.18710937 -0.57109375 6.99921875 -0.9296875 7.8359375 C-2 10 -2 10 -4 12 C-4.33 11.34 -4.66 10.68 -5 10 C-4.00390625 7.6171875 -4.00390625 7.6171875 -2.5625 4.875 C-1.85287109 3.50988281 -1.85287109 3.50988281 -1.12890625 2.1171875 C-0.75636719 1.41851563 -0.38382813 0.71984375 0 0 Z " fill="#EEEEEF" transform="translate(806,593)"/>
<path d="M0 0 C3 1 3 1 4.6875 3.9375 C6 7 6 7 6 9 C3 8 3 8 1.3125 5.0625 C0 2 0 2 0 0 Z " fill="#0173D9" transform="translate(743,596)"/>
<path d="M0 0 C0.66 0.99 1.32 1.98 2 3 C0.68 5.31 -0.64 7.62 -2 10 C-2.66 9.67 -3.32 9.34 -4 9 C-2.94124926 5.59687262 -1.99097846 2.98646769 0 0 Z " fill="#252525" transform="translate(541,543)"/>
<path d="M0 0 C0.66 0.99 1.32 1.98 2 3 C0.68 5.31 -0.64 7.62 -2 10 C-2.66 9.34 -3.32 8.68 -4 8 C-2.68 5.36 -1.36 2.72 0 0 Z " fill="#E7E6E7" transform="translate(152,719)"/>
<path d="M0 0 C0.66 0.66 1.32 1.32 2 2 C0.68 4.31 -0.64 6.62 -2 9 C-2.66 8.67 -3.32 8.34 -4 8 C-2.66666667 5.33333333 -1.33333333 2.66666667 0 0 Z " fill="#161616" transform="translate(468,512)"/>
<path d="M0 0 C0.33 0 0.66 0 1 0 C1.25 2.8125 1.25 2.8125 1 6 C-1 7.875 -1 7.875 -3 9 C-3 5.30581799 -1.71820705 3.22163822 0 0 Z " fill="#007EE2" transform="translate(594,548)"/>
<path d="M0 0 C0.66 0.33 1.32 0.66 2 1 C0.35 2.98 -1.3 4.96 -3 7 C-4.32 6.67 -5.64 6.34 -7 6 C-4.69 4.02 -2.38 2.04 0 0 Z " fill="#E1E0E1" transform="translate(773,533)"/>
<path d="M0 0 C0.99 0.33 1.98 0.66 3 1 C1.515 4.465 1.515 4.465 0 8 C-0.66 7.67 -1.32 7.34 -2 7 C-1.42415568 4.61435923 -0.77772405 2.33317216 0 0 Z " fill="#101010" transform="translate(248,528)"/>
<path d="M0 0 C0.66 0.66 1.32 1.32 2 2 C0.68 4.31 -0.64 6.62 -2 9 C-2.66 8.67 -3.32 8.34 -4 8 C-2.87548273 5.0280615 -1.77706209 2.66559313 0 0 Z " fill="#141314" transform="translate(481,489)"/>
<path d="M0 0 C0.66 0.99 1.32 1.98 2 3 C1.01 4.98 0.02 6.96 -1 9 C-1.66 8.67 -2.32 8.34 -3 8 C-1.125 2.25 -1.125 2.25 0 0 Z " fill="#DBDADB" transform="translate(168,688)"/>
<path d="M0 0 C0.8125 1.6875 0.8125 1.6875 1 4 C-1.4375 6.75 -1.4375 6.75 -4 9 C-3.46930939 5.17902761 -2.50298434 2.93828597 0 0 Z " fill="#0184EE" transform="translate(610,523)"/>
<path d="M0 0 C1.32 0.66 2.64 1.32 4 2 C0.04 3.98 0.04 3.98 -4 6 C-3.67 5.01 -3.34 4.02 -3 3 C-2.34 3 -1.68 3 -1 3 C-0.67 2.01 -0.34 1.02 0 0 Z " fill="#0358EC" transform="translate(584,731)"/>
<path d="M0 0 C3 1 3 1 4.25 3.375 C5 6 5 6 4 9 C0 2.25 0 2.25 0 0 Z " fill="#027CE8" transform="translate(667,593)"/>
<path d="M0 0 C2.15377564 2.62198774 3.40072174 4.64404172 4 8 C3.01 8.495 3.01 8.495 2 9 C0.14223235 5.86501708 -0.20140476 3.62528568 0 0 Z " fill="#0164C6" transform="translate(729,567)"/>
</svg>
